<svg xmlns="http://www.w3.org/2000/svg" width="600" height="400"><path d="M255,236L231,237L251,286Z" fill="rgb(126,108,200)" stroke="rgb(126,108,200)" stroke-width="1.51"/><path d="M231,237L187,271L251,286Z" fill="rgb(126,107,199)" stroke="rgb(126,107,199)" stroke-width="1.51"/><path d="M187,271L207,335L251,286Z" fill="rgb(131,114,202)" stroke="rgb(131,114,202)" stroke-width="1.51"/><path d="M187,271L164,297L207,335Z" fill="rgb(128,110,200)" stroke="rgb(128,110,200)" stroke-width="1.51"/><path d="M251,286L341,252L255,236Z" fill="rgb(132,115,203)" stroke="rgb(132,115,203)" stroke-width="1.51"/><path d="M349,306L341,252L251,286Z" fill="rgb(141,125,207)" stroke="rgb(141,125,207)" stroke-width="1.51"/><path d="M255,236L258,156L231,237Z" fill="rgb(118,98,196)" stroke="rgb(118,98,196)" stroke-width="1.51"/><path d="M231,237L144,206L187,271Z" fill="rgb(116,96,194)" stroke="rgb(116,96,194)" stroke-width="1.51"/><path d="M187,271L144,206L164,297Z" fill="rgb(117,97,195)" stroke="rgb(117,97,195)" stroke-width="1.51"/><path d="M337,159L258,156L255,236Z" fill="rgb(118,98,195)" stroke="rgb(118,98,195)" stroke-width="1.51"/><path d="M207,335L264,364L251,286Z" fill="rgb(140,124,207)" stroke="rgb(140,124,207)" stroke-width="1.51"/><path d="M258,156L190,168L231,237Z" fill="rgb(111,90,192)" stroke="rgb(111,90,192)" stroke-width="1.51"/><path d="M190,168L144,206L231,237Z" fill="rgb(109,88,190)" stroke="rgb(109,88,190)" stroke-width="1.51"/><path d="M310,370L349,306L251,286Z" fill="rgb(146,133,210)" stroke="rgb(146,133,210)" stroke-width="1.51"/><path d="M86,289L151,332L164,297Z" fill="rgb(122,103,197)" stroke="rgb(122,103,197)" stroke-width="1.51"/><path d="M164,297L151,332L207,335Z" fill="rgb(130,113,201)" stroke="rgb(130,113,201)" stroke-width="1.51"/><path d="M207,335L195,398L264,364Z" fill="rgb(145,130,209)" stroke="rgb(145,130,209)" stroke-width="1.51"/><path d="M144,206L86,289L164,297Z" fill="rgb(113,94,193)" stroke="rgb(113,94,193)" stroke-width="1.51"/><path d="M190,168L137,192L144,206Z" fill="rgb(102,80,187)" stroke="rgb(102,80,187)" stroke-width="1.51"/><path d="M264,364L310,370L251,286Z" fill="rgb(146,133,210)" stroke="rgb(146,133,210)" stroke-width="1.51"/><path d="M341,252L337,159L255,236Z" fill="rgb(128,109,200)" stroke="rgb(128,109,200)" stroke-width="1.51"/><path d="M400,225L337,159L341,252Z" fill="rgb(133,116,203)" stroke="rgb(133,116,203)" stroke-width="1.51"/><path d="M349,306L382,266L341,252Z" fill="rgb(145,130,209)" stroke="rgb(145,130,209)" stroke-width="1.51"/><path d="M435,301L382,266L349,306Z" fill="rgb(152,138,213)" stroke="rgb(152,138,213)" stroke-width="1.51"/><path d="M151,332L195,398L207,335Z" fill="rgb(138,122,206)" stroke="rgb(138,122,206)" stroke-width="1.51"/><path d="M264,364L291,432L310,370Z" fill="rgb(157,146,216)" stroke="rgb(157,146,216)" stroke-width="1.51"/><path d="M258,156L208,115L190,168Z" fill="rgb(101,80,186)" stroke="rgb(101,80,186)" stroke-width="1.51"/><path d="M190,168L145,112L137,192Z" fill="rgb(95,73,184)" stroke="rgb(95,73,184)" stroke-width="1.51"/><path d="M280,115L208,115L258,156Z" fill="rgb(102,80,187)" stroke="rgb(102,80,187)" stroke-width="1.51"/><path d="M337,159L280,115L258,156Z" fill="rgb(111,90,192)" stroke="rgb(111,90,192)" stroke-width="1.51"/><path d="M337,159L330,127L280,115Z" fill="rgb(112,91,192)" stroke="rgb(112,91,192)" stroke-width="1.51"/><path d="M366,150L330,127L337,159Z" fill="rgb(118,98,195)" stroke="rgb(118,98,195)" stroke-width="1.51"/><path d="M382,266L400,225L341,252Z" fill="rgb(141,126,207)" stroke="rgb(141,126,207)" stroke-width="1.51"/><path d="M82,218L86,289L144,206Z" fill="rgb(105,83,188)" stroke="rgb(105,83,188)" stroke-width="1.51"/><path d="M151,332L142,386L195,398Z" fill="rgb(138,123,206)" stroke="rgb(138,123,206)" stroke-width="1.51"/><path d="M92,327L142,386L151,332Z" fill="rgb(130,112,201)" stroke="rgb(130,112,201)" stroke-width="1.51"/><path d="M400,225L366,150L337,159Z" fill="rgb(127,109,200)" stroke="rgb(127,109,200)" stroke-width="1.51"/><path d="M86,289L92,327L151,332Z" fill="rgb(121,102,196)" stroke="rgb(121,102,196)" stroke-width="1.51"/><path d="M137,192L82,218L144,206Z" fill="rgb(100,78,186)" stroke="rgb(100,78,186)" stroke-width="1.51"/><path d="M76,192L82,218L137,192Z" fill="rgb(95,74,184)" stroke="rgb(95,74,184)" stroke-width="1.51"/><path d="M310,370L382,364L349,306Z" fill="rgb(156,146,216)" stroke="rgb(156,146,216)" stroke-width="1.51"/><path d="M382,266L435,237L400,225Z" fill="rgb(145,130,209)" stroke="rgb(145,130,209)" stroke-width="1.51"/><path d="M348,414L382,364L310,370Z" fill="rgb(163,153,220)" stroke="rgb(163,153,220)" stroke-width="1.51"/><path d="M249,448L291,432L264,364Z" fill="rgb(157,146,216)" stroke="rgb(157,146,216)" stroke-width="1.51"/><path d="M249,448L264,364L195,398Z" fill="rgb(153,141,214)" stroke="rgb(153,141,214)" stroke-width="1.51"/><path d="M208,115L145,112L190,168Z" fill="rgb(93,70,182)" stroke="rgb(93,70,182)" stroke-width="1.51"/><path d="M218,58L145,112L208,115Z" fill="rgb(86,64,180)" stroke="rgb(86,64,180)" stroke-width="1.51"/><path d="M16,235L30,303L86,289Z" fill="rgb(104,83,188)" stroke="rgb(104,83,188)" stroke-width="1.51"/><path d="M89,128L76,192L137,192Z" fill="rgb(89,68,181)" stroke="rgb(89,68,181)" stroke-width="1.51"/><path d="M291,432L348,414L310,370Z" fill="rgb(162,153,219)" stroke="rgb(162,153,219)" stroke-width="1.51"/><path d="M344,449L374,409L348,414Z" fill="rgb(167,159,222)" stroke="rgb(167,159,222)" stroke-width="1.51"/><path d="M227,461L249,448L195,398Z" fill="rgb(151,139,213)" stroke="rgb(151,139,213)" stroke-width="1.51"/><path d="M400,225L429,192L366,150Z" fill="rgb(134,116,203)" stroke="rgb(134,116,203)" stroke-width="1.51"/><path d="M435,301L435,237L382,266Z" fill="rgb(151,138,213)" stroke="rgb(151,138,213)" stroke-width="1.51"/><path d="M382,364L435,301L349,306Z" fill="rgb(158,146,217)" stroke="rgb(158,146,217)" stroke-width="1.51"/><path d="M453,349L435,301L382,364Z" fill="rgb(164,155,220)" stroke="rgb(164,155,220)" stroke-width="1.51"/><path d="M435,237L429,192L400,225Z" fill="rgb(142,127,208)" stroke="rgb(142,127,208)" stroke-width="1.51"/><path d="M348,414L374,409L382,364Z" fill="rgb(168,160,222)" stroke="rgb(168,160,222)" stroke-width="1.51"/><path d="M344,449L348,414L291,432Z" fill="rgb(164,155,220)" stroke="rgb(164,155,220)" stroke-width="1.51"/><path d="M131,482L227,461L195,398Z" fill="rgb(147,132,210)" stroke="rgb(147,132,210)" stroke-width="1.51"/><path d="M249,448L344,449L291,432Z" fill="rgb(160,150,218)" stroke="rgb(160,150,218)" stroke-width="1.51"/><path d="M280,115L251,57L208,115Z" fill="rgb(94,72,183)" stroke="rgb(94,72,183)" stroke-width="1.51"/><path d="M328,65L251,57L280,115Z" fill="rgb(96,75,185)" stroke="rgb(96,75,185)" stroke-width="1.51"/><path d="M328,65L280,115L330,127Z" fill="rgb(105,84,188)" stroke="rgb(105,84,188)" stroke-width="1.51"/><path d="M328,65L330,127L380,91Z" fill="rgb(108,87,190)" stroke="rgb(108,87,190)" stroke-width="1.51"/><path d="M145,112L89,128L137,192Z" fill="rgb(87,65,180)" stroke="rgb(87,65,180)" stroke-width="1.51"/><path d="M75,52L89,128L145,112Z" fill="rgb(72,52,173)" stroke="rgb(72,52,173)" stroke-width="1.51"/><path d="M251,57L218,58L208,115Z" fill="rgb(87,66,180)" stroke="rgb(87,66,180)" stroke-width="1.51"/><path d="M380,91L330,127L366,150Z" fill="rgb(115,95,194)" stroke="rgb(115,95,194)" stroke-width="1.51"/><path d="M368,479L344,449L249,448Z" fill="rgb(163,154,219)" stroke="rgb(163,154,219)" stroke-width="1.51"/><path d="M466,103L380,91L366,150Z" fill="rgb(120,101,196)" stroke="rgb(120,101,196)" stroke-width="1.51"/><path d="M86,289L30,303L92,327Z" fill="rgb(114,93,193)" stroke="rgb(114,93,193)" stroke-width="1.51"/><path d="M92,327L94,429L142,386Z" fill="rgb(133,117,203)" stroke="rgb(133,117,203)" stroke-width="1.51"/><path d="M142,386L131,482L195,398Z" fill="rgb(143,128,208)" stroke="rgb(143,128,208)" stroke-width="1.51"/><path d="M16,235L86,289L82,218Z" fill="rgb(100,79,186)" stroke="rgb(100,79,186)" stroke-width="1.51"/><path d="M32,183L82,218L76,192Z" fill="rgb(90,68,181)" stroke="rgb(90,68,181)" stroke-width="1.51"/><path d="M89,128L32,183L76,192Z" fill="rgb(83,62,178)" stroke="rgb(83,62,178)" stroke-width="1.51"/><path d="M53,430L94,429L92,327Z" fill="rgb(132,116,203)" stroke="rgb(132,116,203)" stroke-width="1.51"/><path d="M523,287L518,241L435,237Z" fill="rgb(158,147,217)" stroke="rgb(158,147,217)" stroke-width="1.51"/><path d="M490,123L466,103L429,192Z" fill="rgb(132,115,203)" stroke="rgb(132,115,203)" stroke-width="1.51"/><path d="M436,403L453,349L382,364Z" fill="rgb(170,163,223)" stroke="rgb(170,163,223)" stroke-width="1.51"/><path d="M436,403L382,364L374,409Z" fill="rgb(171,164,224)" stroke="rgb(171,164,224)" stroke-width="1.51"/><path d="M32,183L16,235L82,218Z" fill="rgb(90,69,181)" stroke="rgb(90,69,181)" stroke-width="1.51"/><path d="M30,303L22,343L92,327Z" fill="rgb(114,94,193)" stroke="rgb(114,94,193)" stroke-width="1.51"/><path d="M-32,337L22,343L30,303Z" fill="rgb(110,89,191)" stroke="rgb(110,89,191)" stroke-width="1.51"/><path d="M368,479L436,403L374,409Z" fill="rgb(172,166,224)" stroke="rgb(172,166,224)" stroke-width="1.51"/><path d="M94,429L131,482L142,386Z" fill="rgb(139,123,206)" stroke="rgb(139,123,206)" stroke-width="1.51"/><path d="M227,461L368,479L249,448Z" fill="rgb(158,148,217)" stroke="rgb(158,148,217)" stroke-width="1.51"/><path d="M110,489L131,482L94,429Z" fill="rgb(138,122,205)" stroke="rgb(138,122,205)" stroke-width="1.51"/><path d="M344,449L368,479L374,409Z" fill="rgb(168,160,222)" stroke="rgb(168,160,222)" stroke-width="1.51"/><path d="M131,482L368,479L227,461Z" fill="rgb(154,142,214)" stroke="rgb(154,142,214)" stroke-width="1.51"/><path d="M218,58L152,26L145,112Z" fill="rgb(76,55,175)" stroke="rgb(76,55,175)" stroke-width="1.51"/><path d="M89,128L25,129L32,183Z" fill="rgb(75,55,175)" stroke="rgb(75,55,175)" stroke-width="1.51"/><path d="M220,2L152,26L218,58Z" fill="rgb(71,50,173)" stroke="rgb(71,50,173)" stroke-width="1.51"/><path d="M220,2L218,58L251,57Z" fill="rgb(78,57,176)" stroke="rgb(78,57,176)" stroke-width="1.51"/><path d="M75,52L25,129L89,128Z" fill="rgb(66,46,172)" stroke="rgb(66,46,172)" stroke-width="1.51"/><path d="M32,183L-17,238L16,235Z" fill="rgb(86,65,179)" stroke="rgb(86,65,179)" stroke-width="1.51"/><path d="M22,343L53,430L92,327Z" fill="rgb(124,105,198)" stroke="rgb(124,105,198)" stroke-width="1.51"/><path d="M309,-18L251,57L328,65Z" fill="rgb(88,66,180)" stroke="rgb(88,66,180)" stroke-width="1.51"/><path d="M293,-22L220,2L251,57Z" fill="rgb(76,55,175)" stroke="rgb(76,55,175)" stroke-width="1.51"/><path d="M16,235L-17,238L30,303Z" fill="rgb(95,74,184)" stroke="rgb(95,74,184)" stroke-width="1.51"/><path d="M22,343L-37,398L53,430Z" fill="rgb(123,104,198)" stroke="rgb(123,104,198)" stroke-width="1.51"/><path d="M-48,167L-17,238L32,183Z" fill="rgb(79,58,177)" stroke="rgb(79,58,177)" stroke-width="1.51"/><path d="M40,481L110,489L94,429Z" fill="rgb(133,117,203)" stroke="rgb(133,117,203)" stroke-width="1.51"/><path d="M131,482L110,489L368,479Z" fill="rgb(149,135,211)" stroke="rgb(149,135,211)" stroke-width="1.51"/><path d="M380,91L392,38L328,65Z" fill="rgb(105,84,189)" stroke="rgb(105,84,189)" stroke-width="1.51"/><path d="M447,53L392,38L380,91Z" fill="rgb(109,89,191)" stroke="rgb(109,89,191)" stroke-width="1.51"/><path d="M111,13L75,52L152,26Z" fill="rgb(55,38,167)" stroke="rgb(55,38,167)" stroke-width="1.51"/><path d="M152,26L75,52L145,112Z" fill="rgb(67,47,171)" stroke="rgb(67,47,171)" stroke-width="1.51"/><path d="M518,241L429,192L435,237Z" fill="rgb(148,134,211)" stroke="rgb(148,134,211)" stroke-width="1.51"/><path d="M429,192L466,103L366,150Z" fill="rgb(128,111,201)" stroke="rgb(128,111,201)" stroke-width="1.51"/><path d="M523,287L435,237L435,301Z" fill="rgb(158,147,217)" stroke="rgb(158,147,217)" stroke-width="1.51"/><path d="M436,403L494,372L453,349Z" fill="rgb(175,170,226)" stroke="rgb(175,170,226)" stroke-width="1.51"/><path d="M468,456L494,372L436,403Z" fill="rgb(180,177,229)" stroke="rgb(180,177,229)" stroke-width="1.51"/><path d="M523,287L435,301L453,349Z" fill="rgb(165,157,221)" stroke="rgb(165,157,221)" stroke-width="1.51"/><path d="M518,241L502,151L429,192Z" fill="rgb(146,131,210)" stroke="rgb(146,131,210)" stroke-width="1.51"/><path d="M494,372L523,287L453,349Z" fill="rgb(172,165,224)" stroke="rgb(172,165,224)" stroke-width="1.51"/><path d="M127,-14L111,13L152,26Z" fill="rgb(52,35,166)" stroke="rgb(52,35,166)" stroke-width="1.51"/><path d="M466,103L447,53L380,91Z" fill="rgb(117,97,194)" stroke="rgb(117,97,194)" stroke-width="1.51"/><path d="M502,151L490,123L429,192Z" fill="rgb(137,120,205)" stroke="rgb(137,120,205)" stroke-width="1.51"/><path d="M-17,238L-41,277L30,303Z" fill="rgb(97,76,184)" stroke="rgb(97,76,184)" stroke-width="1.51"/><path d="M-94,266L-41,277L-17,238Z" fill="rgb(94,73,183)" stroke="rgb(94,73,183)" stroke-width="1.51"/><path d="M383,-15L309,-18L328,65Z" fill="rgb(89,67,181)" stroke="rgb(89,67,181)" stroke-width="1.51"/><path d="M186,-53L127,-14L152,26Z" fill="rgb(55,37,167)" stroke="rgb(55,37,167)" stroke-width="1.51"/><path d="M-41,277L-32,337L30,303Z" fill="rgb(104,83,188)" stroke="rgb(104,83,188)" stroke-width="1.51"/><path d="M309,-18L293,-22L251,57Z" fill="rgb(79,58,177)" stroke="rgb(79,58,177)" stroke-width="1.51"/><path d="M392,38L383,-15L328,65Z" fill="rgb(97,76,185)" stroke="rgb(97,76,185)" stroke-width="1.51"/><path d="M506,33L447,53L466,103Z" fill="rgb(119,99,195)" stroke="rgb(119,99,195)" stroke-width="1.51"/><path d="M368,479L468,456L436,403Z" fill="rgb(175,171,227)" stroke="rgb(175,171,227)" stroke-width="1.51"/><path d="M494,372L571,347L523,287Z" fill="rgb(177,172,227)" stroke="rgb(177,172,227)" stroke-width="1.51"/><path d="M186,-53L152,26L220,2Z" fill="rgb(61,42,169)" stroke="rgb(61,42,169)" stroke-width="1.51"/><path d="M111,13L42,29L75,52Z" fill="rgb(48,32,165)" stroke="rgb(48,32,165)" stroke-width="1.51"/><path d="M53,430L40,481L94,429Z" fill="rgb(131,114,202)" stroke="rgb(131,114,202)" stroke-width="1.51"/><path d="M-25,455L40,481L53,430Z" fill="rgb(126,108,199)" stroke="rgb(126,108,199)" stroke-width="1.51"/><path d="M468,456L518,387L494,372Z" fill="rgb(184,181,231)" stroke="rgb(184,181,231)" stroke-width="1.51"/><path d="M25,129L-48,167L32,183Z" fill="rgb(71,50,173)" stroke="rgb(71,50,173)" stroke-width="1.51"/><path d="M-51,108L-48,167L25,129Z" fill="rgb(64,45,170)" stroke="rgb(64,45,170)" stroke-width="1.51"/><path d="M42,29L25,129L75,52Z" fill="rgb(54,37,167)" stroke="rgb(54,37,167)" stroke-width="1.51"/><path d="M16,3L42,29L111,13Z" fill="rgb(37,24,162)" stroke="rgb(37,24,162)" stroke-width="1.51"/><path d="M458,3L383,-15L392,38Z" fill="rgb(99,78,186)" stroke="rgb(99,78,186)" stroke-width="1.51"/><path d="M332,-93L283,-89L293,-22Z" fill="rgb(81,60,177)" stroke="rgb(81,60,177)" stroke-width="1.51"/><path d="M-32,337L-37,398L22,343Z" fill="rgb(115,95,194)" stroke="rgb(115,95,194)" stroke-width="1.51"/><path d="M-75,356L-37,398L-32,337Z" fill="rgb(116,96,194)" stroke="rgb(116,96,194)" stroke-width="1.51"/><path d="M-75,356L-32,337L-41,277Z" fill="rgb(108,87,190)" stroke="rgb(108,87,190)" stroke-width="1.51"/><path d="M571,347L557,290L523,287Z" fill="rgb(174,168,226)" stroke="rgb(174,168,226)" stroke-width="1.51"/><path d="M523,287L557,290L518,241Z" fill="rgb(166,157,221)" stroke="rgb(166,157,221)" stroke-width="1.51"/><path d="M518,241L582,173L502,151Z" fill="rgb(150,138,212)" stroke="rgb(150,138,212)" stroke-width="1.51"/><path d="M33,-81L16,3L111,13Z" fill="rgb(29,20,160)" stroke="rgb(29,20,160)" stroke-width="1.51"/><path d="M283,-89L186,-53L220,2Z" fill="rgb(69,49,172)" stroke="rgb(69,49,172)" stroke-width="1.51"/><path d="M155,-70L186,-53L283,-89Z" fill="rgb(65,45,171)" stroke="rgb(65,45,171)" stroke-width="1.51"/><path d="M584,109L506,33L490,123Z" fill="rgb(131,113,202)" stroke="rgb(131,113,202)" stroke-width="1.51"/><path d="M506,33L458,3L447,53Z" fill="rgb(111,91,192)" stroke="rgb(111,91,192)" stroke-width="1.51"/><path d="M557,290L567,238L518,241Z" fill="rgb(165,156,220)" stroke="rgb(165,156,220)" stroke-width="1.51"/><path d="M-53,66L-51,108L25,129Z" fill="rgb(54,37,167)" stroke="rgb(54,37,167)" stroke-width="1.51"/><path d="M-94,266L-75,356L-41,277Z" fill="rgb(102,82,187)" stroke="rgb(102,82,187)" stroke-width="1.51"/><path d="M-37,398L-25,455L53,430Z" fill="rgb(123,104,198)" stroke="rgb(123,104,198)" stroke-width="1.51"/><path d="M-37,398L-98,432L-25,455Z" fill="rgb(123,104,198)" stroke="rgb(123,104,198)" stroke-width="1.51"/><path d="M-94,266L-17,238L-107,214Z" fill="rgb(89,68,181)" stroke="rgb(89,68,181)" stroke-width="1.51"/><path d="M506,33L466,103L490,123Z" fill="rgb(126,107,199)" stroke="rgb(126,107,199)" stroke-width="1.51"/><path d="M447,53L458,3L392,38Z" fill="rgb(107,86,190)" stroke="rgb(107,86,190)" stroke-width="1.51"/><path d="M-107,214L-17,238L-48,167Z" fill="rgb(82,60,178)" stroke="rgb(82,60,178)" stroke-width="1.51"/><path d="M557,290L646,279L567,238Z" fill="rgb(172,166,225)" stroke="rgb(172,166,225)" stroke-width="1.51"/><path d="M518,387L571,347L494,372Z" fill="rgb(182,179,230)" stroke="rgb(182,179,230)" stroke-width="1.51"/><path d="M581,427L571,347L518,387Z" fill="rgb(189,189,234)" stroke="rgb(189,189,234)" stroke-width="1.51"/><path d="M186,-53L155,-70L127,-14Z" fill="rgb(55,37,167)" stroke="rgb(55,37,167)" stroke-width="1.51"/><path d="M42,29L-53,66L25,129Z" fill="rgb(47,31,165)" stroke="rgb(47,31,165)" stroke-width="1.51"/><path d="M283,-89L220,2L293,-22Z" fill="rgb(75,54,175)" stroke="rgb(75,54,175)" stroke-width="1.51"/><path d="M293,-22L309,-18L332,-93Z" fill="rgb(82,61,178)" stroke="rgb(82,61,178)" stroke-width="1.51"/><path d="M33,-81L111,13L127,-14Z" fill="rgb(40,26,163)" stroke="rgb(40,26,163)" stroke-width="1.51"/><path d="M584,109L490,123L502,151Z" fill="rgb(138,122,206)" stroke="rgb(138,122,206)" stroke-width="1.51"/><path d="M567,238L582,173L518,241Z" fill="rgb(159,148,217)" stroke="rgb(159,148,217)" stroke-width="1.51"/><path d="M652,221L582,173L567,238Z" fill="rgb(162,153,219)" stroke="rgb(162,153,219)" stroke-width="1.51"/><path d="M-53,66L-79,127L-51,108Z" fill="rgb(54,36,167)" stroke="rgb(54,36,167)" stroke-width="1.51"/><path d="M-51,108L-79,127L-48,167Z" fill="rgb(64,44,170)" stroke="rgb(64,44,170)" stroke-width="1.51"/><path d="M332,-93L309,-18L366,-83Z" fill="rgb(86,64,180)" stroke="rgb(86,64,180)" stroke-width="1.51"/><path d="M-111,160L-107,214L-48,167Z" fill="rgb(75,55,175)" stroke="rgb(75,55,175)" stroke-width="1.51"/><path d="M-94,266L-98,432L-75,356Z" fill="rgb(113,93,193)" stroke="rgb(113,93,193)" stroke-width="1.51"/><path d="M16,3L-53,66L42,29Z" fill="rgb(28,20,160)" stroke="rgb(28,20,160)" stroke-width="1.51"/><path d="M468,456L521,491L518,387Z" fill="rgb(185,183,232)" stroke="rgb(185,183,232)" stroke-width="1.51"/><path d="M368,479L521,491L468,456Z" fill="rgb(179,175,228)" stroke="rgb(179,175,228)" stroke-width="1.51"/><path d="M110,489L521,491L368,479Z" fill="rgb(165,156,220)" stroke="rgb(165,156,220)" stroke-width="1.51"/><path d="M366,-83L383,-15L464,-75Z" fill="rgb(96,75,184)" stroke="rgb(96,75,184)" stroke-width="1.51"/><path d="M366,-83L309,-18L383,-15Z" fill="rgb(89,67,181)" stroke="rgb(89,67,181)" stroke-width="1.51"/><path d="M464,-75L383,-15L458,3Z" fill="rgb(101,79,186)" stroke="rgb(101,79,186)" stroke-width="1.51"/><path d="M-79,127L-111,160L-48,167Z" fill="rgb(68,48,172)" stroke="rgb(68,48,172)" stroke-width="1.51"/><path d="M-110,58L-111,160L-79,127Z" fill="rgb(58,40,168)" stroke="rgb(58,40,168)" stroke-width="1.51"/><path d="M582,173L584,109L502,151Z" fill="rgb(145,131,209)" stroke="rgb(145,131,209)" stroke-width="1.51"/><path d="M155,-70L101,-87L127,-14Z" fill="rgb(49,32,165)" stroke="rgb(49,32,165)" stroke-width="1.51"/><path d="M16,3L-28,-25L-53,66Z" fill="rgb(15,14,158)" stroke="rgb(15,14,158)" stroke-width="1.51"/><path d="M283,-89L101,-87L155,-70Z" fill="rgb(60,41,169)" stroke="rgb(60,41,169)" stroke-width="1.51"/><path d="M332,-93L101,-87L283,-89Z" fill="rgb(71,50,173)" stroke="rgb(71,50,173)" stroke-width="1.51"/><path d="M643,336L646,279L557,290Z" fill="rgb(179,175,228)" stroke="rgb(179,175,228)" stroke-width="1.51"/><path d="M582,173L640,123L584,109Z" fill="rgb(149,135,211)" stroke="rgb(149,135,211)" stroke-width="1.51"/><path d="M521,491L581,427L518,387Z" fill="rgb(189,189,234)" stroke="rgb(189,189,234)" stroke-width="1.51"/><path d="M-104,459L-98,432L-107,214Z" fill="rgb(117,97,195)" stroke="rgb(117,97,195)" stroke-width="1.51"/><path d="M-107,214L-98,432L-94,266Z" fill="rgb(104,83,188)" stroke="rgb(104,83,188)" stroke-width="1.51"/><path d="M-75,356L-98,432L-37,398Z" fill="rgb(122,103,197)" stroke="rgb(122,103,197)" stroke-width="1.51"/><path d="M-25,455L-104,459L40,481Z" fill="rgb(123,104,198)" stroke="rgb(123,104,198)" stroke-width="1.51"/><path d="M521,491L578,464L581,427Z" fill="rgb(192,192,236)" stroke="rgb(192,192,236)" stroke-width="1.51"/><path d="M-53,66L-110,58L-79,127Z" fill="rgb(48,32,165)" stroke="rgb(48,32,165)" stroke-width="1.51"/><path d="M33,-81L-28,-25L16,3Z" fill="rgb(6,11,157)" stroke="rgb(6,11,157)" stroke-width="1.51"/><path d="M506,33L523,-27L458,3Z" fill="rgb(110,89,191)" stroke="rgb(110,89,191)" stroke-width="1.51"/><path d="M561,5L523,-27L506,33Z" fill="rgb(115,94,193)" stroke="rgb(115,94,193)" stroke-width="1.51"/><path d="M-98,432L-104,459L-25,455Z" fill="rgb(123,104,198)" stroke="rgb(123,104,198)" stroke-width="1.51"/><path d="M-111,160L-104,459L-107,214Z" fill="rgb(98,77,185)" stroke="rgb(98,77,185)" stroke-width="1.51"/><path d="M523,-27L464,-75L458,3Z" fill="rgb(107,86,189)" stroke="rgb(107,86,189)" stroke-width="1.51"/><path d="M366,-83L464,-75L332,-93Z" fill="rgb(94,72,183)" stroke="rgb(94,72,183)" stroke-width="1.51"/><path d="M101,-87L33,-81L127,-14Z" fill="rgb(39,26,162)" stroke="rgb(39,26,162)" stroke-width="1.51"/><path d="M643,336L557,290L571,347Z" fill="rgb(182,179,230)" stroke="rgb(182,179,230)" stroke-width="1.51"/><path d="M643,336L571,347L647,408Z" fill="rgb(190,190,235)" stroke="rgb(190,190,235)" stroke-width="1.51"/><path d="M649,69L588,46L584,109Z" fill="rgb(138,122,205)" stroke="rgb(138,122,205)" stroke-width="1.51"/><path d="M584,109L588,46L506,33Z" fill="rgb(130,112,201)" stroke="rgb(130,112,201)" stroke-width="1.51"/><path d="M647,408L571,347L581,427Z" fill="rgb(195,197,238)" stroke="rgb(195,197,238)" stroke-width="1.51"/><path d="M588,46L561,5L506,33Z" fill="rgb(122,103,197)" stroke="rgb(122,103,197)" stroke-width="1.51"/><path d="M-73,-3L-110,58L-53,66Z" fill="rgb(31,22,160)" stroke="rgb(31,22,160)" stroke-width="1.51"/><path d="M666,241L652,221L646,279Z" fill="rgb(169,162,223)" stroke="rgb(169,162,223)" stroke-width="1.51"/><path d="M646,279L652,221L567,238Z" fill="rgb(169,161,223)" stroke="rgb(169,161,223)" stroke-width="1.51"/><path d="M-28,-25L-73,-3L-53,66Z" fill="rgb(14,13,158)" stroke="rgb(14,13,158)" stroke-width="1.51"/><path d="M-114,-53L-73,-3L-28,-25Z" fill="rgb(1,9,156)" stroke="rgb(1,9,156)" stroke-width="1.51"/><path d="M652,221L649,180L582,173Z" fill="rgb(159,149,217)" stroke="rgb(159,149,217)" stroke-width="1.51"/><path d="M649,180L640,123L582,173Z" fill="rgb(153,141,214)" stroke="rgb(153,141,214)" stroke-width="1.51"/><path d="M575,-57L523,-27L561,5Z" fill="rgb(117,97,195)" stroke="rgb(117,97,195)" stroke-width="1.51"/><path d="M649,180L678,161L640,123Z" fill="rgb(152,140,213)" stroke="rgb(152,140,213)" stroke-width="1.51"/><path d="M652,221L678,161L649,180Z" fill="rgb(158,147,217)" stroke="rgb(158,147,217)" stroke-width="1.51"/><path d="M683,273L666,241L646,279Z" fill="rgb(172,166,225)" stroke="rgb(172,166,225)" stroke-width="1.51"/><path d="M643,336L683,273L646,279Z" fill="rgb(178,174,228)" stroke="rgb(178,174,228)" stroke-width="1.51"/><path d="M640,465L647,408L581,427Z" fill="rgb(196,199,238)" stroke="rgb(196,199,238)" stroke-width="1.51"/><path d="M575,-57L561,5L627,-12Z" fill="rgb(121,102,197)" stroke="rgb(121,102,197)" stroke-width="1.51"/><path d="M575,-57L526,-65L523,-27Z" fill="rgb(115,95,194)" stroke="rgb(115,95,194)" stroke-width="1.51"/><path d="M523,-27L526,-65L464,-75Z" fill="rgb(111,90,191)" stroke="rgb(111,90,191)" stroke-width="1.51"/><path d="M696,354L683,273L643,336Z" fill="rgb(182,180,230)" stroke="rgb(182,180,230)" stroke-width="1.51"/><path d="M666,241L678,161L652,221Z" fill="rgb(162,153,219)" stroke="rgb(162,153,219)" stroke-width="1.51"/><path d="M33,-81L-33,-82L-28,-25Z" fill="rgb(1,9,156)" stroke="rgb(1,9,156)" stroke-width="1.51"/><path d="M-73,-3L-114,-53L-110,58Z" fill="rgb(1,9,156)" stroke="rgb(1,9,156)" stroke-width="1.51"/><path d="M101,-87L-33,-82L33,-81Z" fill="rgb(21,17,159)" stroke="rgb(21,17,159)" stroke-width="1.51"/><path d="M640,123L649,69L584,109Z" fill="rgb(142,127,208)" stroke="rgb(142,127,208)" stroke-width="1.51"/><path d="M683,273L678,161L666,241Z" fill="rgb(165,157,221)" stroke="rgb(165,157,221)" stroke-width="1.51"/><path d="M578,464L640,465L581,427Z" fill="rgb(196,199,238)" stroke="rgb(196,199,238)" stroke-width="1.51"/><path d="M647,408L696,354L643,336Z" fill="rgb(190,190,235)" stroke="rgb(190,190,235)" stroke-width="1.51"/><path d="M521,491L640,465L578,464Z" fill="rgb(194,195,237)" stroke="rgb(194,195,237)" stroke-width="1.51"/><path d="M700,112L649,69L640,123Z" fill="rgb(142,128,208)" stroke="rgb(142,128,208)" stroke-width="1.51"/><path d="M627,-12L561,5L588,46Z" fill="rgb(124,106,199)" stroke="rgb(124,106,199)" stroke-width="1.51"/><path d="M683,273L700,112L678,161Z" fill="rgb(157,146,216)" stroke="rgb(157,146,216)" stroke-width="1.51"/><path d="M698,413L696,354L647,408Z" fill="rgb(195,197,237)" stroke="rgb(195,197,237)" stroke-width="1.51"/><path d="M702,28L627,-12L649,69Z" fill="rgb(128,111,201)" stroke="rgb(128,111,201)" stroke-width="1.51"/><path d="M649,69L627,-12L588,46Z" fill="rgb(130,112,201)" stroke="rgb(130,112,201)" stroke-width="1.51"/><path d="M-33,-82L-114,-53L-28,-25Z" fill="rgb(1,9,156)" stroke="rgb(1,9,156)" stroke-width="1.51"/><path d="M-110,58L-114,-53L-111,160Z" fill="rgb(38,25,162)" stroke="rgb(38,25,162)" stroke-width="1.51"/><path d="M640,465L682,453L647,408Z" fill="rgb(196,199,238)" stroke="rgb(196,199,238)" stroke-width="1.51"/><path d="M682,453L698,413L647,408Z" fill="rgb(196,199,238)" stroke="rgb(196,199,238)" stroke-width="1.51"/><path d="M678,161L700,112L640,123Z" fill="rgb(148,135,211)" stroke="rgb(148,135,211)" stroke-width="1.51"/><path d="M696,354L700,112L683,273Z" fill="rgb(169,162,223)" stroke="rgb(169,162,223)" stroke-width="1.51"/><path d="M698,413L700,112L696,354Z" fill="rgb(177,173,228)" stroke="rgb(177,173,228)" stroke-width="1.51"/><path d="M627,-12L646,-71L575,-57Z" fill="rgb(123,104,198)" stroke="rgb(123,104,198)" stroke-width="1.51"/><path d="M700,112L702,28L649,69Z" fill="rgb(137,120,205)" stroke="rgb(137,120,205)" stroke-width="1.51"/><path d="M698,413L702,28L700,112Z" fill="rgb(158,147,216)" stroke="rgb(158,147,216)" stroke-width="1.51"/><path d="M702,28L678,-22L627,-12Z" fill="rgb(123,104,198)" stroke="rgb(123,104,198)" stroke-width="1.51"/><path d="M678,-22L646,-71L627,-12Z" fill="rgb(123,104,198)" stroke="rgb(123,104,198)" stroke-width="1.51"/><path d="M575,-57L646,-71L526,-65Z" fill="rgb(121,101,197)" stroke="rgb(121,101,197)" stroke-width="1.51"/><path d="M526,-65L646,-71L464,-75Z" fill="rgb(116,96,194)" stroke="rgb(116,96,194)" stroke-width="1.51"/><path d="M464,-75L646,-71L332,-93Z" fill="rgb(107,86,189)" stroke="rgb(107,86,189)" stroke-width="1.51"/><path d="M678,-22L702,-66L646,-71Z" fill="rgb(123,104,198)" stroke="rgb(123,104,198)" stroke-width="1.51"/><path d="M702,28L702,-66L678,-22Z" fill="rgb(123,104,198)" stroke="rgb(123,104,198)" stroke-width="1.51"/></svg>